<svg width="197" height="31" viewBox="0 0 197 31" fill="none" xmlns="http://www.w3.org/2000/svg">
<path d="M9.593 24.33C7.547 24.33 5.831 24.033 4.445 23.439C3.081 22.823 2.036 22.031 1.31 21.063C0.606 20.073 0.232 19.039 0.188 17.961C0.188 17.763 0.254 17.598 0.386 17.466C0.518 17.334 0.683 17.268 0.881 17.268H3.818C4.104 17.268 4.313 17.334 4.445 17.466C4.599 17.576 4.731 17.719 4.841 17.895C4.973 18.313 5.226 18.731 5.6 19.149C5.974 19.545 6.48 19.875 7.118 20.139C7.778 20.403 8.603 20.535 9.593 20.535C11.177 20.535 12.354 20.271 13.124 19.743C13.916 19.215 14.312 18.5 14.312 17.598C14.312 16.96 14.103 16.454 13.685 16.08C13.267 15.684 12.618 15.332 11.738 15.024C10.88 14.694 9.736 14.353 8.306 14.001C6.656 13.605 5.27 13.132 4.148 12.582C3.048 12.01 2.212 11.295 1.64 10.437C1.09 9.579 0.815 8.49 0.815 7.17C0.815 5.894 1.156 4.761 1.838 3.771C2.542 2.781 3.532 2 4.808 1.428C6.106 0.855999 7.646 0.569999 9.428 0.569999C10.858 0.569999 12.123 0.767999 13.223 1.164C14.323 1.538 15.236 2.044 15.962 2.682C16.688 3.298 17.238 3.969 17.612 4.695C18.008 5.399 18.217 6.092 18.239 6.774C18.239 6.95 18.173 7.115 18.041 7.269C17.931 7.401 17.766 7.467 17.546 7.467H14.477C14.301 7.467 14.125 7.423 13.949 7.335C13.773 7.247 13.63 7.082 13.52 6.84C13.388 6.158 12.959 5.575 12.233 5.091C11.507 4.607 10.572 4.365 9.428 4.365C8.24 4.365 7.283 4.585 6.557 5.025C5.831 5.465 5.468 6.147 5.468 7.071C5.468 7.687 5.644 8.204 5.996 8.622C6.37 9.018 6.953 9.37 7.745 9.678C8.559 9.986 9.626 10.316 10.946 10.668C12.816 11.086 14.345 11.57 15.533 12.12C16.721 12.67 17.59 13.374 18.14 14.232C18.69 15.068 18.965 16.135 18.965 17.433C18.965 18.885 18.569 20.128 17.777 21.162C17.007 22.174 15.918 22.955 14.51 23.505C13.102 24.055 11.463 24.33 9.593 24.33ZM24.5619 24C24.3419 24 24.1549 23.923 24.0009 23.769C23.8469 23.615 23.7699 23.428 23.7699 23.208V7.632C23.7699 7.412 23.8469 7.225 24.0009 7.071C24.1549 6.917 24.3419 6.84 24.5619 6.84H27.3009C27.5429 6.84 27.7299 6.917 27.8619 7.071C28.0159 7.225 28.0929 7.412 28.0929 7.632V23.208C28.0929 23.428 28.0159 23.615 27.8619 23.769C27.7299 23.923 27.5429 24 27.3009 24H24.5619ZM24.4299 4.002C24.1879 4.002 23.9899 3.936 23.8359 3.804C23.7039 3.65 23.6379 3.452 23.6379 3.21V0.833999C23.6379 0.613999 23.7039 0.426999 23.8359 0.272999C23.9899 0.118999 24.1879 0.0419996 24.4299 0.0419996H27.4329C27.6749 0.0419996 27.8729 0.118999 28.0269 0.272999C28.1809 0.426999 28.2579 0.613999 28.2579 0.833999V3.21C28.2579 3.452 28.1809 3.65 28.0269 3.804C27.8729 3.936 27.6749 4.002 27.4329 4.002H24.4299ZM34.682 24C34.462 24 34.275 23.923 34.121 23.769C33.967 23.615 33.89 23.428 33.89 23.208V7.632C33.89 7.412 33.967 7.225 34.121 7.071C34.275 6.917 34.462 6.84 34.682 6.84H37.256C37.476 6.84 37.663 6.917 37.817 7.071C37.971 7.225 38.048 7.412 38.048 7.632V8.754C38.51 8.138 39.126 7.621 39.896 7.203C40.688 6.763 41.623 6.532 42.701 6.51C45.209 6.466 46.958 7.445 47.948 9.447C48.454 8.567 49.18 7.863 50.126 7.335C51.094 6.785 52.161 6.51 53.327 6.51C54.471 6.51 55.505 6.774 56.429 7.302C57.375 7.83 58.112 8.633 58.64 9.711C59.19 10.767 59.465 12.109 59.465 13.737V23.208C59.465 23.428 59.388 23.615 59.234 23.769C59.08 23.923 58.893 24 58.673 24H55.967C55.747 24 55.56 23.923 55.406 23.769C55.252 23.615 55.175 23.428 55.175 23.208V14.001C55.175 13.011 55.032 12.23 54.746 11.658C54.46 11.064 54.075 10.646 53.591 10.404C53.107 10.162 52.568 10.041 51.974 10.041C51.49 10.041 51.006 10.162 50.522 10.404C50.038 10.646 49.642 11.064 49.334 11.658C49.026 12.23 48.872 13.011 48.872 14.001V23.208C48.872 23.428 48.795 23.615 48.641 23.769C48.487 23.923 48.3 24 48.08 24H45.374C45.132 24 44.934 23.923 44.78 23.769C44.648 23.615 44.582 23.428 44.582 23.208V14.001C44.582 13.011 44.428 12.23 44.12 11.658C43.812 11.064 43.416 10.646 42.932 10.404C42.448 10.162 41.931 10.041 41.381 10.041C40.875 10.041 40.38 10.173 39.896 10.437C39.412 10.679 39.016 11.086 38.708 11.658C38.4 12.23 38.246 13.011 38.246 14.001V23.208C38.246 23.428 38.169 23.615 38.015 23.769C37.861 23.923 37.674 24 37.454 24H34.682ZM65.9114 30.27C65.6914 30.27 65.5044 30.193 65.3504 30.039C65.1964 29.885 65.1194 29.698 65.1194 29.478V7.632C65.1194 7.412 65.1964 7.225 65.3504 7.071C65.5044 6.917 65.6914 6.84 65.9114 6.84H68.5184C68.7604 6.84 68.9474 6.917 69.0794 7.071C69.2334 7.225 69.3104 7.412 69.3104 7.632V8.952C69.8384 8.248 70.5314 7.665 71.3894 7.203C72.2474 6.741 73.3144 6.51 74.5904 6.51C75.7564 6.51 76.7684 6.697 77.6264 7.071C78.4844 7.445 79.1994 7.984 79.7714 8.688C80.3434 9.37 80.7834 10.184 81.0914 11.13C81.3994 12.076 81.5754 13.121 81.6194 14.265C81.6414 14.639 81.6524 15.024 81.6524 15.42C81.6524 15.816 81.6414 16.212 81.6194 16.608C81.5974 17.708 81.4324 18.731 81.1244 19.677C80.8164 20.601 80.3654 21.415 79.7714 22.119C79.1994 22.801 78.4844 23.34 77.6264 23.736C76.7684 24.132 75.7564 24.33 74.5904 24.33C73.4024 24.33 72.3904 24.121 71.5544 23.703C70.7184 23.263 70.0364 22.691 69.5084 21.987V29.478C69.5084 29.698 69.4314 29.885 69.2774 30.039C69.1454 30.193 68.9584 30.27 68.7164 30.27H65.9114ZM73.3694 20.799C74.3154 20.799 75.0524 20.601 75.5804 20.205C76.1084 19.787 76.4824 19.248 76.7024 18.588C76.9444 17.928 77.0874 17.202 77.1314 16.41C77.1754 15.75 77.1754 15.09 77.1314 14.43C77.0874 13.638 76.9444 12.912 76.7024 12.252C76.4824 11.592 76.1084 11.064 75.5804 10.668C75.0524 10.25 74.3154 10.041 73.3694 10.041C72.4674 10.041 71.7304 10.25 71.1584 10.668C70.6084 11.086 70.2014 11.625 69.9374 12.285C69.6954 12.923 69.5524 13.583 69.5084 14.265C69.4864 14.661 69.4754 15.079 69.4754 15.519C69.4754 15.959 69.4864 16.388 69.5084 16.806C69.5304 17.466 69.6844 18.104 69.9704 18.72C70.2564 19.314 70.6744 19.809 71.2244 20.205C71.7744 20.601 72.4894 20.799 73.3694 20.799ZM87.6009 24C87.3809 24 87.1939 23.923 87.0399 23.769C86.8859 23.615 86.8089 23.428 86.8089 23.208V1.362C86.8089 1.142 86.8859 0.954999 87.0399 0.801C87.1939 0.646999 87.3809 0.569999 87.6009 0.569999H90.3399C90.5599 0.569999 90.7469 0.646999 90.9009 0.801C91.0549 0.954999 91.1319 1.142 91.1319 1.362V23.208C91.1319 23.428 91.0549 23.615 90.9009 23.769C90.7469 23.923 90.5599 24 90.3399 24H87.6009ZM104.32 24.33C101.878 24.33 99.9423 23.626 98.5123 22.218C97.0823 20.81 96.3123 18.808 96.2023 16.212C96.1803 15.992 96.1693 15.717 96.1693 15.387C96.1693 15.035 96.1803 14.76 96.2023 14.562C96.2903 12.912 96.6643 11.482 97.3243 10.272C98.0063 9.062 98.9413 8.138 100.129 7.5C101.317 6.84 102.714 6.51 104.32 6.51C106.102 6.51 107.598 6.884 108.808 7.632C110.018 8.358 110.931 9.381 111.547 10.701C112.163 11.999 112.471 13.506 112.471 15.222V15.915C112.471 16.135 112.394 16.322 112.24 16.476C112.086 16.63 111.888 16.707 111.646 16.707H100.69C100.69 16.707 100.69 16.74 100.69 16.806C100.69 16.872 100.69 16.927 100.69 16.971C100.712 17.741 100.855 18.456 101.119 19.116C101.405 19.754 101.812 20.271 102.34 20.667C102.89 21.063 103.539 21.261 104.287 21.261C104.903 21.261 105.42 21.173 105.838 20.997C106.256 20.799 106.597 20.579 106.861 20.337C107.125 20.095 107.312 19.897 107.422 19.743C107.62 19.479 107.774 19.325 107.884 19.281C108.016 19.215 108.203 19.182 108.445 19.182H111.283C111.503 19.182 111.679 19.248 111.811 19.38C111.965 19.512 112.031 19.677 112.009 19.875C111.987 20.227 111.8 20.656 111.448 21.162C111.118 21.668 110.634 22.163 109.996 22.647C109.358 23.131 108.555 23.538 107.587 23.868C106.641 24.176 105.552 24.33 104.32 24.33ZM100.69 13.935H107.983V13.836C107.983 12.978 107.84 12.23 107.554 11.592C107.268 10.954 106.85 10.448 106.3 10.074C105.75 9.7 105.09 9.513 104.32 9.513C103.55 9.513 102.89 9.7 102.34 10.074C101.79 10.448 101.372 10.954 101.086 11.592C100.822 12.23 100.69 12.978 100.69 13.836V13.935Z" fill="#FF6838"/>
<path d="M118.581 24C118.361 24 118.174 23.923 118.02 23.769C117.866 23.615 117.789 23.428 117.789 23.208V1.725C117.789 1.483 117.866 1.285 118.02 1.131C118.174 0.976999 118.361 0.899998 118.581 0.899998H132.903C133.145 0.899998 133.343 0.976999 133.497 1.131C133.651 1.285 133.728 1.483 133.728 1.725V4.035C133.728 4.277 133.651 4.475 133.497 4.629C133.343 4.761 133.145 4.827 132.903 4.827H122.31V11.097H132.243C132.485 11.097 132.683 11.174 132.837 11.328C132.991 11.482 133.068 11.68 133.068 11.922V14.232C133.068 14.452 132.991 14.639 132.837 14.793C132.683 14.947 132.485 15.024 132.243 15.024H122.31V23.208C122.31 23.428 122.233 23.615 122.079 23.769C121.925 23.923 121.727 24 121.485 24H118.581ZM145.899 24.33C144.139 24.33 142.654 24.022 141.444 23.406C140.256 22.79 139.343 21.921 138.705 20.799C138.089 19.677 137.737 18.368 137.649 16.872C137.627 16.476 137.616 15.992 137.616 15.42C137.616 14.848 137.627 14.364 137.649 13.968C137.737 12.45 138.1 11.141 138.738 10.041C139.398 8.919 140.322 8.05 141.51 7.434C142.72 6.818 144.183 6.51 145.899 6.51C147.615 6.51 149.067 6.818 150.255 7.434C151.465 8.05 152.389 8.919 153.027 10.041C153.687 11.141 154.061 12.45 154.149 13.968C154.171 14.364 154.182 14.848 154.182 15.42C154.182 15.992 154.171 16.476 154.149 16.872C154.061 18.368 153.698 19.677 153.06 20.799C152.444 21.921 151.531 22.79 150.321 23.406C149.133 24.022 147.659 24.33 145.899 24.33ZM145.899 21.063C147.065 21.063 147.967 20.7 148.605 19.974C149.243 19.226 149.595 18.137 149.661 16.707C149.683 16.377 149.694 15.948 149.694 15.42C149.694 14.892 149.683 14.463 149.661 14.133C149.595 12.725 149.243 11.647 148.605 10.899C147.967 10.151 147.065 9.777 145.899 9.777C144.733 9.777 143.831 10.151 143.193 10.899C142.555 11.647 142.203 12.725 142.137 14.133C142.115 14.463 142.104 14.892 142.104 15.42C142.104 15.948 142.115 16.377 142.137 16.707C142.203 18.137 142.555 19.226 143.193 19.974C143.831 20.7 144.733 21.063 145.899 21.063ZM166.848 24.33C165.088 24.33 163.603 24.022 162.393 23.406C161.205 22.79 160.292 21.921 159.654 20.799C159.038 19.677 158.686 18.368 158.598 16.872C158.576 16.476 158.565 15.992 158.565 15.42C158.565 14.848 158.576 14.364 158.598 13.968C158.686 12.45 159.049 11.141 159.687 10.041C160.347 8.919 161.271 8.05 162.459 7.434C163.669 6.818 165.132 6.51 166.848 6.51C168.564 6.51 170.016 6.818 171.204 7.434C172.414 8.05 173.338 8.919 173.976 10.041C174.636 11.141 175.01 12.45 175.098 13.968C175.12 14.364 175.131 14.848 175.131 15.42C175.131 15.992 175.12 16.476 175.098 16.872C175.01 18.368 174.647 19.677 174.009 20.799C173.393 21.921 172.48 22.79 171.27 23.406C170.082 24.022 168.608 24.33 166.848 24.33ZM166.848 21.063C168.014 21.063 168.916 20.7 169.554 19.974C170.192 19.226 170.544 18.137 170.61 16.707C170.632 16.377 170.643 15.948 170.643 15.42C170.643 14.892 170.632 14.463 170.61 14.133C170.544 12.725 170.192 11.647 169.554 10.899C168.916 10.151 168.014 9.777 166.848 9.777C165.682 9.777 164.78 10.151 164.142 10.899C163.504 11.647 163.152 12.725 163.086 14.133C163.064 14.463 163.053 14.892 163.053 15.42C163.053 15.948 163.064 16.377 163.086 16.707C163.152 18.137 163.504 19.226 164.142 19.974C164.78 20.7 165.682 21.063 166.848 21.063ZM186.575 24.33C185.431 24.33 184.419 24.143 183.539 23.769C182.681 23.373 181.966 22.823 181.394 22.119C180.822 21.415 180.382 20.59 180.074 19.644C179.766 18.676 179.59 17.62 179.546 16.476C179.524 16.08 179.513 15.728 179.513 15.42C179.513 15.09 179.524 14.727 179.546 14.331C179.59 13.231 179.755 12.208 180.041 11.262C180.349 10.316 180.789 9.491 181.361 8.787C181.955 8.061 182.681 7.5 183.539 7.104C184.419 6.708 185.431 6.51 186.575 6.51C187.763 6.51 188.764 6.719 189.578 7.137C190.414 7.533 191.107 8.05 191.657 8.688V1.362C191.657 1.142 191.723 0.954999 191.855 0.801C192.009 0.646999 192.207 0.569999 192.449 0.569999H195.254C195.474 0.569999 195.661 0.646999 195.815 0.801C195.969 0.954999 196.046 1.142 196.046 1.362V23.208C196.046 23.428 195.969 23.615 195.815 23.769C195.661 23.923 195.474 24 195.254 24H192.647C192.405 24 192.207 23.923 192.053 23.769C191.921 23.615 191.855 23.428 191.855 23.208V21.987C191.305 22.669 190.601 23.23 189.743 23.67C188.907 24.11 187.851 24.33 186.575 24.33ZM187.796 20.799C188.72 20.799 189.457 20.59 190.007 20.172C190.557 19.754 190.964 19.226 191.228 18.588C191.492 17.928 191.635 17.257 191.657 16.575C191.679 16.179 191.69 15.761 191.69 15.321C191.69 14.859 191.679 14.43 191.657 14.034C191.635 13.374 191.481 12.747 191.195 12.153C190.909 11.537 190.491 11.031 189.941 10.635C189.391 10.239 188.676 10.041 187.796 10.041C186.872 10.041 186.135 10.25 185.585 10.668C185.057 11.064 184.672 11.592 184.43 12.252C184.188 12.912 184.045 13.638 184.001 14.43C183.979 15.09 183.979 15.75 184.001 16.41C184.045 17.202 184.188 17.928 184.43 18.588C184.672 19.248 185.057 19.787 185.585 20.205C186.135 20.601 186.872 20.799 187.796 20.799Z" fill="#363853"/>
</svg>
